<svg width="101" height="88" viewBox="0 0 101 88" fill="none" xmlns="http://www.w3.org/2000/svg">
<g clip-path="url(#clip0)">
<path d="M44 88C68.3005 88 88 68.3005 88 44C88 19.6995 68.3005 0 44 0C19.6995 0 0 19.6995 0 44C0 68.3005 19.6995 88 44 88Z" fill="#F2F2F2"/>
<path d="M67.3809 80.7157C72.8544 75.2421 72.8544 66.3677 67.3809 60.8941C61.9073 55.4205 53.0328 55.4205 47.5592 60.8941C42.0857 66.3677 42.0857 75.2422 47.5592 80.7157C53.0328 86.1893 61.9073 86.1893 67.3809 80.7157Z" fill="#333333"/>
<path d="M44.0003 73.2311C29.938 73.2311 18.498 61.7911 18.498 47.7289V35.9529C18.498 21.8907 29.938 10.4507 44.0003 10.4507C58.0625 10.4507 69.5114 21.8907 69.5114 35.9529V47.7289C69.5114 61.7911 58.0625 73.2311 44.0003 73.2311Z" fill="#333333"/>
<path d="M44.0025 12.374H44.0007C30.9796 12.374 20.4238 22.9298 20.4238 35.9509V47.7287C20.4238 60.7498 30.9796 71.3056 44.0007 71.3056H44.0025C57.0237 71.3056 67.5794 60.7498 67.5794 47.7287V35.9509C67.5794 22.9298 57.0237 12.374 44.0025 12.374Z" fill="white"/>
<path d="M69.5114 41.1808V36.4288C69.5114 21.7319 57.2998 9.70167 42.6225 10.4892C29.1985 11.2003 18.498 22.3541 18.498 35.9541V41.5079C18.498 41.5506 38.3078 53.931 49.2536 30.5088C53.7336 37.9221 60.5656 41.2821 69.3994 41.195C69.4385 41.2448 69.5114 41.2448 69.5114 41.1808Z" fill="#333333"/>
<path d="M20.4233 40.0433C20.0677 37.1082 20.5673 34.0415 21.7211 31.2237C22.9193 28.3817 24.7209 25.834 27.0011 23.7571C31.5522 19.5544 37.7904 17.2771 44.0002 17.2717C50.21 17.2664 56.4446 19.5491 61.0029 23.7535C63.283 25.8305 65.0846 28.3781 66.2829 31.2202C67.4349 34.0397 67.938 37.1082 67.5771 40.0433C67.2533 37.174 66.3329 34.4041 64.8749 31.9117C63.4559 29.4997 61.5903 27.3802 59.378 25.6664C55.0029 22.2442 49.5006 20.4842 44.0037 20.4646C38.5051 20.4788 33.0029 22.2424 28.6277 25.6629C26.41 27.3757 24.5395 29.496 23.1166 31.91C21.6626 34.4041 20.7453 37.1743 20.4233 40.0433Z" fill="#333333"/>
<path d="M24.6682 52.1537C25.0354 48.8229 22.6328 45.8251 19.302 45.4579C15.9711 45.0908 12.9733 47.4933 12.6062 50.8242C12.239 54.155 14.6416 57.1529 17.9724 57.52C21.3033 57.8871 24.3011 55.4846 24.6682 52.1537Z" fill="white"/>
<path d="M75.2664 52.8889C76.0419 49.6289 74.0277 46.3575 70.7677 45.582C67.5076 44.8066 64.2362 46.8207 63.4607 50.0808C62.6853 53.3408 64.6994 56.6123 67.9595 57.3877C71.2196 58.1632 74.491 56.149 75.2664 52.8889Z" fill="white"/>
<path d="M35.6309 56.0645C35.6309 58.2843 36.5127 60.4131 38.0823 61.9828C39.6519 63.5524 41.7808 64.4342 44.0006 64.4342C46.2204 64.4342 48.3493 63.5524 49.919 61.9828C51.4886 60.4131 52.3704 58.2843 52.3704 56.0645H35.6309Z" fill="#F2F2F2"/>
<path d="M53.8895 105.665C53.2511 105.665 52.6389 105.412 52.1875 104.96C51.736 104.509 51.4824 103.897 51.4824 103.258V78.1757C51.4995 77.5488 51.7605 76.9534 52.2098 76.516C52.6592 76.0787 53.2616 75.834 53.8886 75.834C54.5157 75.834 55.1181 76.0787 55.5674 76.516C56.0168 76.9534 56.2778 77.5488 56.2949 78.1757V103.258C56.2949 103.896 56.0415 104.508 55.5905 104.96C55.1394 105.411 54.5276 105.665 53.8895 105.665Z" fill="white"/>
<path d="M33.7237 105.665C33.0856 105.665 32.4738 105.411 32.0228 104.96C31.5717 104.508 31.3184 103.896 31.3184 103.258V78.1757C31.3354 77.5488 31.5964 76.9534 32.0458 76.516C32.4952 76.0787 33.0975 75.834 33.7246 75.834C34.3517 75.834 34.954 76.0787 35.4034 76.516C35.8528 76.9534 36.1138 77.5488 36.1308 78.1757V103.258C36.1308 103.897 35.8772 104.509 35.4258 104.96C34.9744 105.412 34.3621 105.665 33.7237 105.665Z" fill="white"/>
<path d="M37.3331 75.3254H50.6665C51.393 75.3254 52.0899 75.6141 52.6036 76.1278C53.1174 76.6416 53.406 77.3384 53.406 78.065V92.9983H34.5918V78.065C34.5918 77.7051 34.6627 77.3487 34.8005 77.0162C34.9383 76.6837 35.1402 76.3816 35.3948 76.1272C35.6494 75.8728 35.9516 75.671 36.2842 75.5335C36.6168 75.3959 36.9732 75.3252 37.3331 75.3254Z" fill="#333333"/>
<path d="M40 69.116H48V76.7231C48 77.7846 47.5788 78.8028 46.8289 79.554C46.0789 80.3053 45.0615 80.7283 44 80.7302C42.9385 80.7283 41.9211 80.3053 41.1711 79.554C40.4212 78.8028 40 77.7846 40 76.7231V69.116Z" fill="white"/>
<path d="M31.7061 52.9792C31.2577 52.9777 30.828 52.799 30.5109 52.4819C30.1938 52.1648 30.0151 51.7351 30.0137 51.2867V49.1391C30.0155 48.691 30.1945 48.2618 30.5116 47.9451C30.8286 47.6284 31.258 47.4499 31.7061 47.4485C32.1541 47.4499 32.5833 47.6285 32.9 47.9452C33.2168 48.262 33.3954 48.6912 33.3968 49.1391V51.2867C33.3958 51.735 33.2175 52.1646 32.9007 52.4818C32.5839 52.7989 32.1544 52.9777 31.7061 52.9792Z" fill="#333333"/>
<path d="M56.2981 52.9792C55.8498 52.9777 55.4203 52.7989 55.1035 52.4818C54.7867 52.1646 54.6084 51.735 54.6074 51.2867V49.1391C54.6088 48.6912 54.7874 48.262 55.1042 47.9452C55.4209 47.6285 55.8501 47.4499 56.2981 47.4485C56.7462 47.4499 57.1756 47.6284 57.4926 47.9451C57.8097 48.2618 57.9887 48.691 57.9905 49.1391V51.2867C57.9891 51.7351 57.8104 52.1648 57.4933 52.4819C57.1762 52.799 56.7465 52.9777 56.2981 52.9792Z" fill="#333333"/>
<path d="M91.375 76.675H86.675V81.375H84.325V76.675H79.625V74.325H84.325V69.625H86.675V74.325H91.375V76.675ZM85.5 63.75C83.957 63.75 82.429 64.0539 81.0035 64.6444C79.5779 65.2349 78.2826 66.1004 77.1915 67.1915C74.9879 69.395 73.75 72.3837 73.75 75.5C73.75 78.6163 74.9879 81.605 77.1915 83.8085C78.2826 84.8996 79.5779 85.7651 81.0035 86.3556C82.429 86.9461 83.957 87.25 85.5 87.25C88.6163 87.25 91.605 86.0121 93.8085 83.8085C96.0121 81.605 97.25 78.6163 97.25 75.5C97.25 73.957 96.9461 72.429 96.3556 71.0035C95.7651 69.5779 94.8996 68.2826 93.8085 67.1915C92.7174 66.1004 91.4221 65.2349 89.9965 64.6444C88.571 64.0539 87.043 63.75 85.5 63.75Z" fill="#367BF5"/>
</g>
<defs>
<clipPath id="clip0">
<rect width="101" height="88" fill="white"/>
</clipPath>
</defs>
</svg>
